<?xml version="1.0" encoding="utf-8"?>
<!-- Generator: Adobe Illustrator 23.0.0, SVG Export Plug-In . SVG Version: 6.00 Build 0)  -->
<svg version="1.1" id="圖層_1" xmlns="http://www.w3.org/2000/svg" xmlns:xlink="http://www.w3.org/1999/xlink" x="0px" y="0px"
	 viewBox="0 0 671.4 262.6" style="enable-background:new 0 0 671.4 262.6;" xml:space="preserve">
<style type="text/css">
	.st0{fill:#FFFFFF;stroke:#000000;stroke-miterlimit:10;}
</style>
<title>資產 15</title>
<g>
	<g id="_2floor">
		<path class="st0" d="M670.7,137.9l-325,122.2c-0.1,0-0.2,0-0.2,0L0.7,129.8c-0.1,0-0.2-0.2-0.2-0.3V0.8c0-0.2,0.1-0.3,0.3-0.4
			c0.1,0,0.1,0,0.2,0l345.5,127.6c0.1,0,0.2,0,0.2,0L670.3,7.7c0.2-0.1,0.5,0,0.6,0.3c0,0.1,0,0.1,0,0.2v129.5
			C670.9,137.7,670.8,137.9,670.7,137.9z"/>
	</g>
</g>
</svg>
