<svg xmlns="http://www.w3.org/2000/svg" viewBox="0 0 112.9 111.95"><defs><style>.cls-1{fill:#fff;stroke:#000;stroke-miterlimit:10;}</style></defs><title>資產 4</title><g id="圖層_2" data-name="圖層 2"><g id="_1floor" data-name="1floor"><path class="cls-1" d="M.5,20.4V89.06a.2.2,0,0,0,.12.18l56.92,22.2a.19.19,0,0,0,.26-.18l0-68.72a.19.19,0,0,0-.13-.18L.76,20.22A.19.19,0,0,0,.5,20.4Z"/><path class="cls-1" d="M58.33,111.31l53.83-23.44a.4.4,0,0,0,.24-.36V23.33a.39.39,0,0,0-.52-.36L58,42.32a.38.38,0,0,0-.25.36l0,68.28A.38.38,0,0,0,58.33,111.31Z"/><path class="cls-1" d="M112.29,22.74,55.15.5h0L.78,20a.11.11,0,0,0,0,.21l57,22.17h0l54.51-19.58S112.33,22.76,112.29,22.74Z"/></g></g></svg>