<?xml version="1.0" encoding="utf-8"?>
<!-- Generator: Adobe Illustrator 23.0.0, SVG Export Plug-In . SVG Version: 6.00 Build 0)  -->
<svg version="1.1" id="圖層_1" xmlns="http://www.w3.org/2000/svg" xmlns:xlink="http://www.w3.org/1999/xlink" x="0px" y="0px"
	 viewBox="0 0 407.5 510.5" style="enable-background:new 0 0 407.5 510.5;" xml:space="preserve">
<style type="text/css">
	.st0{fill:#FFFFFF;stroke:#000000;stroke-miterlimit:10;}
	.st1{fill:#FFFFFF;stroke:#000000;stroke-linecap:round;stroke-linejoin:round;}
	.st2{fill:none;stroke:#000000;stroke-linecap:round;stroke-linejoin:round;}
</style>
<title>資產 22</title>
<g>
	<g id="_4floor">
		<path class="st0" d="M277.7,310.4c3.7,1.5,7.3,3,11,4.7c1.8,0.8,3.6,1.7,5.4,2.5l2.7,1.3l0.8,0.4c7.3,3.6,14.3,7.6,21.1,12
			c6.7,4.2,13.2,8.7,19.6,13.5c3.2,2.4,6.3,4.9,9.3,7.4c1.5,1.3,3,2.5,4.5,3.9c0.8,0.6,1.5,1.3,2.2,2l1.1,1l-0.1-0.1
			c2.4,2.2,4.6,3.9,8.1,4.1c3,0.2,6-0.8,8.4-2.7c4.1-3.8,6.2-12,1.4-16.4c-25.7-23.7-55.4-42.5-87.8-55.6
			c-5.6-2.3-13.1,1.4-14.8,7.2C268.5,301.7,271.7,308.2,277.7,310.4L277.7,310.4z"/>
		<path class="st0" d="M273.8,221c3.7,1.5,7.4,3,11,4.7c1.8,0.8,3.6,1.7,5.4,2.5l2.7,1.3c0.9,0.4,2.7,1.3,0.8,0.4
			c7.3,3.6,14.3,7.6,21.1,12c6.7,4.2,13.2,8.8,19.6,13.6c3.2,2.4,6.3,4.9,9.3,7.4c1.5,1.3,3,2.6,4.5,3.9c0.8,0.6,1.5,1.3,2.2,2
			l1.1,1l-0.1-0.1c2.4,2.2,4.6,3.9,8.1,4.1c3,0.2,6-0.8,8.4-2.7c4.1-3.8,6.2-12,1.4-16.4c-25.7-23.7-55.5-42.5-87.9-55.6
			c-5.7-2.3-13.1,1.4-14.8,7.2C264.7,212.3,267.8,218.8,273.8,221z"/>
		<path class="st1" d="M391.2,23.8v55.4l-0.9,133.3l-97.7,45.1l53.5,49.1L224.2,508.5l-1.4,0.8L184,510l-1-2.6l55.6-169l-61.8-9
			l-64.6-9.4l-18.4-2.7c-5.1-0.7-9.1-4.7-9.9-9.7L82,295.9l-16.2-96.5c0-0.7-0.4-1.4-1.1-1.6l-2.8-1.2c2.3,0,4.5,0.1,6.8,0.1l0,0
			c0.4,0,0.8,0,1.3,0L390,23.1c0,0,0,0,0,0c0.4-0.2,1,0,1.1,0.5C391.2,23.6,391.2,23.7,391.2,23.8z"/>
		<line class="st2" x1="176.9" y1="329.4" x2="151.1" y2="422.7"/>
		<path class="st1" d="M390,23.1L70,196.8c-0.5,0-0.9,0-1.3,0L390,23.1z"/>
		<path class="st1" d="M83.3,314.7l-60.2-39.1L0.5,173.8c0-0.9,0.7-1.6,1.6-1.6c0.1,0,0.2,0,0.2,0h0.1l59.1,24.4h0.3l2.8,1.2
			c0.7,0.3,1.1,0.9,1.1,1.6L82,295.9l3,17.8c0.1,0.6-0.3,1.1-0.8,1.3C83.9,315,83.6,314.9,83.3,314.7z"/>
		<path class="st1" d="M2.7,172.2l59.1,24.4h-0.3L2.5,172.2C2.5,172.1,2.7,172.2,2.7,172.2z"/>
		<path class="st1" d="M238.6,338.4l-55.6,169l-0.2,0.5c0,0.9-0.8,1.7-1.7,1.7c-0.2,0-0.5-0.1-0.7-0.1l-45-24.6
			c-0.6-0.3-1-0.9-1-1.6l16.7-60.5l25.8-93.3L238.6,338.4z"/>
		<path class="st1" d="M390,23C390,23,390,23,390,23L70,196.8c-0.5,0-0.9,0-1.3,0l0,0c-2.2,0-4.4-0.1-6.8-0.1h-0.3L2.5,172.2H2.3
			l-1.4-0.6l310.3-171c2.6,0,5,0,7.6-0.1L390,22.2c0.2,0.1,0.3,0.4,0.2,0.6C390.2,22.9,390.1,23,390,23z"/>
	</g>
</g>
</svg>
