<?xml version="1.0" encoding="utf-8"?>
<!-- Generator: Adobe Illustrator 23.0.0, SVG Export Plug-In . SVG Version: 6.00 Build 0)  -->
<svg version="1.1" id="圖層_1" xmlns="http://www.w3.org/2000/svg" xmlns:xlink="http://www.w3.org/1999/xlink" x="0px" y="0px"
	 viewBox="0 0 548.7 556.8" style="enable-background:new 0 0 548.7 556.8;" xml:space="preserve">
<style type="text/css">
	.st0{fill:#FFFFFF;stroke:#000000;stroke-miterlimit:10;}
</style>
<title>資產 23</title>
<g>
	<g id="_4floor">
		<path class="st0" d="M210.3,538.3l-183-72.8c-0.5-0.2-0.8-0.7-0.8-1.2V59.8c0-0.7,0.6-1.3,1.3-1.3c0.1,0,0.3,0,0.4,0.1l182.2,71.3
			c0.5,0.2,0.8,0.7,0.8,1.2l0.9,406c0,0.7-0.5,1.3-1.2,1.3C210.7,538.4,210.5,538.3,210.3,538.3z"/>
		<path class="st0" d="M527.2,18.1l0.5,401.7c0,0.3-0.2,0.5-0.4,0.6L212.1,538.1c-0.4,0.2,0,0.4,0,0l-0.9-407.5
			c0-0.3,0.2-0.5,0.4-0.6L526.3,17.5c0.3-0.1,0.7,0,0.8,0.3C527.1,17.9,527.2,18,527.2,18.1z"/>
		<path class="st0" d="M26.8,57.8l82.7-26.2l140.9,54.6h0.1L485.7,4.5l40.6,12.3c0.2,0.1,0.3,0.3,0.2,0.5c0,0.1-0.1,0.2-0.2,0.2
			l-315,112.6h-0.1L26.8,58C26.8,58,26.8,57.9,26.8,57.8L26.8,57.8z"/>
	</g>
</g>
</svg>
