<?xml version="1.0" encoding="utf-8"?>
<!-- Generator: Adobe Illustrator 23.0.0, SVG Export Plug-In . SVG Version: 6.00 Build 0)  -->
<svg version="1.1" id="圖層_1" xmlns="http://www.w3.org/2000/svg" xmlns:xlink="http://www.w3.org/1999/xlink" x="0px" y="0px"
	 viewBox="0 0 174.3 139" style="enable-background:new 0 0 174.3 139;" xml:space="preserve">
<style type="text/css">
	.st0{fill:none;stroke:#FFFFFF;stroke-miterlimit:10;}
</style>
<title>資產 19</title>
<g>
	<g id="_3floor">
		<path class="st0" d="M90.2,78.1c4.8,1.1,7.1,0.9,10,4.7c2,2.6,2.3,6.2,4.5,8.6c2.2,2.4,6.1,3.3,9.3,3.5c2.7,0.3,5.3-0.3,7.6-1.8
			c2.4-1.7,5.4-8.3,8.9-7.3c2.8,0.7,2.5,5.3,2.5,7.4c0.1,4.1,0.7,8.2,1.7,12.1c1.9,7.1,5.4,14.4,10.9,19.5c2.8,2.6,6.3,4.6,10.1,4.5
			c5-0.2,9.5-4,11.4-8.5c2.1-5.4,1.6-11.4,1.9-17.1c0.3-5.9,0.6-11.9,0.9-17.8l1.8-36.1c0.1-0.9,0-1.9-0.3-2.7
			c-0.5-0.9-1.2-1.6-2-2.2c-2.4-1.7-4.5-3.8-6.3-6.2c-1.1-1.7-1.6-6.1-3.6-6.4L137.6,28c-0.4-0.1-0.8-0.1-1.2-0.1
			c-1.8,0.4-1.9,3.3-3.7,3.9c-0.6,0.1-1.1,0.1-1.7,0c-10.7-2.1-21.5-4.1-32.2-6.2L101,26c-10.7-2-21.5-4.2-32.2-6.1
			c-0.6-0.1-1.1-0.3-1.6-0.6c-1.4-1.2-0.4-4-2-5c-0.4-0.2-0.7-0.3-1.1-0.4L42.4,9.8c-2-0.3-4.1,3.6-5.7,4.7
			c-2.5,1.5-5.3,2.7-8.2,3.4c-1,0.2-1.9,0.6-2.6,1.3c-0.6,0.7-1.1,1.5-1.3,2.4L12.9,55.9C11,61.5,9.1,67.1,7.2,72.7
			c-1.8,5.4-4.6,10.8-4.6,16.6c0,4.9,2.8,10.1,7.4,12.1c3.5,1.5,7.5,0.9,11.1-0.4c7-2.7,12.9-8.2,17.3-14.1
			c2.5-3.3,4.5-6.8,6.1-10.6c0.8-2,2.2-6.3,5.1-6c3.6,0.4,4,7.7,5.5,10.2c1.5,2.2,3.8,3.8,6.4,4.5c3,0.9,7,1.6,9.9,0.2
			s4.5-4.7,7.3-6.3C82.8,76.3,85.5,77.5,90.2,78.1z"/>
		<circle class="st0" cx="66.9" cy="69.9" r="10.1"/>
		<circle class="st0" cx="114.5" cy="79" r="10.1"/>
		<circle class="st0" cx="135.4" cy="60" r="3.9"/>
		<circle class="st0" cx="148.1" cy="51.2" r="3.9"/>
		<circle class="st0" cx="144.1" cy="72.6" r="3.9"/>
		<ellipse transform="matrix(0.9898 -0.1427 0.1427 0.9898 -7.5344 22.9952)" class="st0" cx="156.6" cy="64" rx="3.9" ry="3.9"/>
		<path class="st0" d="M45.5,29.4l3.8,0.7c1.1,0.2,1.7,1.2,1.6,2.3c0,0,0,0,0,0l-1.2,6.5c-0.1,0.6-0.5,1.1-1,1.4l-2.4,1.2
			c-0.9,0.4-1.9,0.2-2.5-0.6L42.3,39c-0.3-0.5-0.5-1-0.3-1.6c0.4-2.2,0.8-4.4,1.3-6.6C43.4,29.9,44.4,29.2,45.5,29.4z"/>
		<path class="st0" d="M40.1,57.7l3.8,0.7c1,0.2,2-0.5,2.3-1.5l1.2-6.5c0.1-0.6-0.1-1.2-0.4-1.6l-1.8-2c-0.6-0.7-1.7-0.9-2.5-0.4
			l-1.9,1.2c-0.5,0.3-0.8,0.8-0.9,1.3c-0.4,2.2-0.8,4.4-1.3,6.6C38.4,56.4,39,57.4,40.1,57.7z"/>
		<path class="st0" d="M59.2,44.7l-0.7,3.8c-0.2,1.1-1.2,1.7-2.3,1.6c0,0,0,0,0,0l-6.5-1.2c-0.6-0.1-1.1-0.5-1.4-1l-1.2-2.4
			c-0.4-0.9-0.2-1.9,0.6-2.5l1.8-1.4c0.4-0.3,1-0.4,1.5-0.3l6.6,1.3C58.7,42.7,59.4,43.7,59.2,44.7z"/>
		<path class="st0" d="M30.9,39.3l-0.7,3.8c-0.2,1.1,0.5,2.1,1.5,2.3c0,0,0,0,0,0l6.5,1.2c0.6,0.1,1.2,0,1.6-0.4l2-1.8
			c0.7-0.6,0.9-1.7,0.4-2.5L41,39.9c-0.3-0.5-0.7-0.8-1.3-0.9l-6.6-1.3C32.1,37.6,31.1,38.3,30.9,39.3z"/>
		<path class="st0" d="M125.2,30.7l-3.7,19.5c-0.6,3.1-3.6,5.2-6.8,4.6l-36.9-7.1c-3.1-0.6-5.2-3.6-4.6-6.8c0,0,0,0,0,0l3.7-19.5
			L125.2,30.7z"/>
		<path class="st0" d="M44.1,9.7l0.6-2.9c0.1-0.7,0.8-1.2,1.6-1.1l16.5,3.1c0.7,0.1,1.2,0.9,1.1,1.6l-0.6,2.9"/>
		<path class="st0" d="M140.6,28.2l0.5-2.9c0.1-0.7,0.9-1.2,1.6-1.1c0,0,0,0,0,0l16.5,3.2c0.7,0.1,1.2,0.8,1.1,1.6c0,0,0,0,0,0
			l-0.5,2.9"/>
		<path class="st0" d="M90.6,70.8l1.9,0.4c1,0.2,1.6,1.1,1.4,2.1l0,0c-0.2,1-1.1,1.6-2.1,1.4l-1.9-0.4c-1-0.2-1.6-1.1-1.4-2.1l0,0
			C88.7,71.2,89.6,70.6,90.6,70.8z"/>
	</g>
</g>
</svg>
