<svg xmlns="http://www.w3.org/2000/svg" viewBox="0 0 298.05 388.13"><defs><style>.cls-1{fill:#fff;stroke:#000;stroke-miterlimit:10;stroke-width:0.73px;}</style></defs><title>資產 17</title><g id="圖層_2" data-name="圖層 2"><g id="_2floor" data-name="2floor"><path class="cls-1" d="M.36,19.44V295.28a.41.41,0,0,0,.27.38l244.5,92.08a.41.41,0,0,0,.57-.38l2.66-273.86a.41.41,0,0,0-.26-.39L.93,19.06A.41.41,0,0,0,.36,19.44Z"/><path class="cls-1" d="M14.21,35.66v254a.37.37,0,0,0,.24.35L231.54,371.5a.38.38,0,0,0,.52-.36L234.52,119a.39.39,0,0,0-.25-.36L14.73,35.3A.39.39,0,0,0,14.21,35.66Z"/><path class="cls-1" d="M246.86,387.48l48.79-18.78a.83.83,0,0,0,.51-.77l1.53-272.35a.84.84,0,0,0-1.12-.78L248.92,113a.84.84,0,0,0-.56.78L245.7,386.71A.84.84,0,0,0,246.86,387.48Z"/><path class="cls-1" d="M297.46,94.32,51.6.37a.06.06,0,0,0-.06,0L1,18.62a.24.24,0,0,0,0,.45L248.33,113.2h.07l49.06-18.72A.08.08,0,0,0,297.46,94.32Z"/></g></g></svg>