<svg xmlns="http://www.w3.org/2000/svg" viewBox="0 0 366.99 558.61"><defs><style>.cls-1{fill:#fff;stroke:#000;stroke-miterlimit:10;}</style></defs><title>資產 8</title><g id="圖層_2" data-name="圖層 2"><g id="_1floor" data-name="1floor"><path class="cls-1" d="M.5,65.59V484.87a.62.62,0,0,0,.4.58l186.16,72.61a.62.62,0,0,0,.85-.58L187.8,138a.62.62,0,0,0-.4-.58L1.35,65A.63.63,0,0,0,.5,65.59Z"/><path class="cls-1" d="M189.66,557.66,365.72,481a1.26,1.26,0,0,0,.77-1.16V75.18A1.26,1.26,0,0,0,364.81,74L188.64,137.27a1.27,1.27,0,0,0-.84,1.19l.11,418A1.26,1.26,0,0,0,189.66,557.66Z"/><path class="cls-1" d="M366.15,73.26,179.24.51a.17.17,0,0,0-.1,0L1.41,64.35a.36.36,0,0,0,0,.67l186.35,72.53h.1l178.3-64A.13.13,0,0,0,366.15,73.26Z"/></g></g></svg>