<svg xmlns="http://www.w3.org/2000/svg" viewBox="0 0 568.48 521.14"><defs><style>.cls-1{fill:#fff;stroke:#000;stroke-miterlimit:10;}</style></defs><title>資產 7</title><g id="圖層_2" data-name="圖層 2"><g id="_1floor" data-name="1floor"><path class="cls-1" d="M.5,20.78V351.27a.46.46,0,0,0,.26.41L418.15,520.61a.42.42,0,0,0,.57-.41l2.66-343.27a.43.43,0,0,0-.27-.4L1.07,20.37A.42.42,0,0,0,.5,20.78Z"/><path class="cls-1" d="M14.35,38V345.3a.4.4,0,0,0,.24.38l390,157.66a.39.39,0,0,0,.52-.38l2.45-320.23a.4.4,0,0,0-.24-.38L14.87,37.65A.38.38,0,0,0,14.35,38Z"/><path class="cls-1" d="M419.88,520.33l48.78-20a.89.89,0,0,0,.51-.81l1.53-341.66a.84.84,0,0,0-1.12-.83l-47.65,19.36a.89.89,0,0,0-.55.83l-2.66,342.27A.84.84,0,0,0,419.88,520.33Z"/><path class="cls-1" d="M470.48,156.54,51.74.51a.09.09,0,0,0-.07,0L1.1,19.91a.26.26,0,0,0,0,.48L421.35,176.62h.06l49.07-19.9A.1.1,0,0,0,470.48,156.54Z"/></g><g id="水管"><path class="cls-1" d="M445.72,232.05c16.08,13.14,38.07,18.77,58.58,18.75s44.37-4.79,60.62-18c4.41-3.57,3.72-11.13,0-14.85-4.35-4.35-10.43-3.58-14.84,0-5.72,4.65-13.73,6.71-20.71,8.52a99.69,99.69,0,0,1-25.07,3.32c-14.48,0-32.17-3.15-43.73-12.6-4.39-3.58-10.56-4.29-14.85,0-3.7,3.7-4.42,11.24,0,14.85Z"/><path class="cls-1" d="M445.72,268.61c16.08,13.14,38.07,18.76,58.58,18.74s44.37-4.79,60.62-18c4.41-3.58,3.72-11.13,0-14.85-4.35-4.36-10.43-3.59-14.84,0-5.72,4.64-13.73,6.7-20.71,8.52a99.68,99.68,0,0,1-25.07,3.31c-14.48,0-32.17-3.15-43.73-12.59-4.39-3.59-10.56-4.3-14.85,0-3.7,3.7-4.42,11.24,0,14.85Z"/></g></g></svg>