<svg xmlns="http://www.w3.org/2000/svg" viewBox="0 0 195.12 257.49"><defs><style>.cls-1{fill:#fff;stroke:#000;stroke-miterlimit:10;}</style></defs><title>資產 9</title><g id="圖層_2" data-name="圖層 2"><g id="_1floor" data-name="1floor"><g id="招牌"><path class="cls-1" d="M7.4,52.13C2.91,51.63-.12,45.83.61,39.2s5-11.63,9.44-11.13l.91.12L51,40.66a5.9,5.9,0,0,1,4.1,6.41L53.42,59.38a5.9,5.9,0,0,1-7.61,4.86l-39-12.17"/><path class="cls-1" d="M7.4,90.42c-4.49-.5-7.52-6.3-6.79-12.93s5-11.63,9.44-11.13l.91.12L51,79a5.9,5.9,0,0,1,4.1,6.41L53.42,97.67a5.9,5.9,0,0,1-7.61,4.86l-39-12.17"/><path class="cls-1" d="M38,11.77V223.22a.41.41,0,0,0,.25.38L127.06,257a.41.41,0,0,0,.55-.38l32.3-203a.42.42,0,0,0-.26-.38L38.51,11.39A.41.41,0,0,0,38,11.77Z"/><path class="cls-1" d="M128.75,256.7l32.65-22.49a.83.83,0,0,0,.5-.76L194.62,41.52a.82.82,0,0,0-1.1-.77L160.46,53.1a.83.83,0,0,0-.55.77l-32.3,202.07A.83.83,0,0,0,128.75,256.7Z"/><path class="cls-1" d="M194.4,40.43,76.56.56,72.89.5,38.54,11a.24.24,0,0,0,0,.44L157.88,52.59l4.05-.05L194.4,40.43C194.47,40.41,194.47,40.46,194.4,40.43Z"/></g></g></g></svg>