<svg xmlns="http://www.w3.org/2000/svg" viewBox="0 0 346.89 319.24"><defs><style>.cls-1{fill:#fff;stroke:#000;stroke-miterlimit:10;}</style></defs><title>資產 20</title><g id="圖層_2" data-name="圖層 2"><g id="_3floor" data-name="3floor"><line class="cls-1" x1="345.43" y1="279.22" x2="318.79" y2="287.77"/><line class="cls-1" x1="318.26" y1="318.55" x2="318.27" y2="318.55"/><polyline class="cls-1" points="318.8 287.77 318.27 318.55 344.9 310.01 344.91 310.01 345.44 279.22 28.19 150.17 27.89 149.92 1.23 158.48"/><line class="cls-1" x1="345.44" y1="279.22" x2="318.78" y2="287.77"/><polygon class="cls-1" points="1.55 158.72 1.13 183.54 318.26 318.55 318.27 318.55 318.8 287.77 27.86 169.42 1.55 158.72"/><line class="cls-1" x1="346.38" y1="124.44" x2="319.89" y2="133.44"/><line class="cls-1" x1="319.89" y1="281.23" x2="319.9" y2="281.23"/><polyline class="cls-1" points="319.9 133.44 319.9 281.23 346.38 272.23 346.39 272.23 346.39 124.44 26.99 0.81 26.69 0.56 0.17 9.57"/><line class="cls-1" x1="346.39" y1="124.44" x2="319.88" y2="133.44"/><polygon class="cls-1" points="0.5 9.81 0.5 151.63 319.89 281.23 319.9 281.23 319.9 133.44 26.99 20.06 0.5 9.81"/></g></g></svg>