<?xml version="1.0" encoding="utf-8"?>
<!-- Generator: Adobe Illustrator 23.0.0, SVG Export Plug-In . SVG Version: 6.00 Build 0)  -->
<svg version="1.1" id="圖層_1" xmlns="http://www.w3.org/2000/svg" xmlns:xlink="http://www.w3.org/1999/xlink" x="0px" y="0px"
	 viewBox="0 0 200 200" style="enable-background:new 0 0 200 200;" xml:space="preserve">
<style type="text/css">
	.st0{fill:none;stroke:#FFFFFF;stroke-width:2.7682;stroke-miterlimit:10;}
</style>
<path class="st0" d="M34,116.6c3.6,10.9,12.7,23.6,20,32.6c-65.3,5.4-67.1-87-7.3-94.3c27.2-1.8,49,25.4,41.7,52.6
	c-9.1,30.8-52.6,38.1-81.6,39.9c38.1-7.3,76.2-16.3,114.3-16.3c-3.6,7.3-9.1,14.5-16.3,19.9"/>
<path class="st0" d="M115.6,112.9c9.1-1.8,14.5-5.4,16.3-14.5c-23.6-14.5-43.5,18.1-25.4,36.3c19.9,16.3,54.4,3.6,63.5-18.1"/>
<path class="st0" d="M184.6,98.9c-16.3-12.7-36.3-1.8-30.8,21.8c5.4,18.1,32.6,16.3,30.8-7.3c-27.2,25.4-27.2,70.7-68.9,79.8"/>
</svg>
