<svg xmlns="http://www.w3.org/2000/svg" viewBox="0 0 525.87 4172.46"><defs><style>.cls-1{fill:#fff;stroke:#000;stroke-miterlimit:10;}</style></defs><title>資產 11</title><g id="圖層_2" data-name="圖層 2"><g id="main_" data-name="main&apos;"><path class="cls-1" d="M269.26,4169.66v1.4a.89.89,0,0,1-1.22.84l-267-104.13a.9.9,0,0,1-.57-.84V96.85A.9.9,0,0,1,1.72,96l.06,0L268.54,196.86a.89.89,0,0,1,.57.83v.66Z"/><path class="cls-1" d="M525.37,107.6V4059.67a1.79,1.79,0,0,1-1.1,1.66l-252.5,110a1.81,1.81,0,0,1-2.51-1.66l-.15-3971.31a1.81,1.81,0,0,1,1.2-1.7L523,105.9A1.8,1.8,0,0,1,525.37,107.6Z"/><path class="cls-1" d="M524.88,105.21l-1.92.69L270.31,196.65l-1.13.4a.17.17,0,0,1-.14,0l-.5-.19L1.78,96a.51.51,0,0,1,0-1L256.69.51a.23.23,0,0,1,.14,0L524.89,104.84A.2.2,0,0,1,524.88,105.21Z"/></g></g></svg>