<svg xmlns="http://www.w3.org/2000/svg" viewBox="0 0 177.61 176.12"><defs><style>.cls-1{fill:#fff;stroke:#000;stroke-miterlimit:10;}</style></defs><title>資產 3</title><g id="圖層_2" data-name="圖層 2"><g id="_1floor" data-name="1floor"><path class="cls-1" d="M.5,31.91V140.28a.32.32,0,0,0,.19.28l89.83,35a.31.31,0,0,0,.42-.28L90.88,66.85a.3.3,0,0,0-.19-.28L.91,31.63A.3.3,0,0,0,.5,31.91Z"/><path class="cls-1" d="M91.78,175.4l85-37a.59.59,0,0,0,.37-.56V36.54a.6.6,0,0,0-.81-.57l-85,30.53a.62.62,0,0,0-.41.57l.06,107.77A.6.6,0,0,0,91.78,175.4Z"/><path class="cls-1" d="M177,35.61,86.75.5h0L.94,31.31a.18.18,0,0,0,0,.33l89.93,35h0l86-30.91A.06.06,0,0,0,177,35.61Z"/></g></g></svg>