<svg xmlns="http://www.w3.org/2000/svg" viewBox="0 0 144.37 143.16"><defs><style>.cls-1{fill:#fff;stroke:#000;stroke-miterlimit:10;}</style></defs><title>資產 5</title><g id="圖層_2" data-name="圖層 2"><g id="_1floor" data-name="1floor"><path class="cls-1" d="M.5,26v88a.25.25,0,0,0,.16.23l72.92,28.44a.25.25,0,0,0,.33-.23l0-88a.25.25,0,0,0-.15-.23L.83,25.77A.24.24,0,0,0,.5,26Z"/><path class="cls-1" d="M74.6,142.48l69-30a.5.5,0,0,0,.3-.45V29.75a.49.49,0,0,0-.66-.46l-69,24.79a.48.48,0,0,0-.33.46l0,87.49A.49.49,0,0,0,74.6,142.48Z"/><path class="cls-1" d="M143.74,29,70.52.5h0L.85,25.51a.15.15,0,0,0,0,.27l73,28.41h0L143.74,29.1A.06.06,0,0,0,143.74,29Z"/></g></g></svg>