<?xml version="1.0" encoding="utf-8"?>
<!-- Generator: Adobe Illustrator 23.0.0, SVG Export Plug-In . SVG Version: 6.00 Build 0)  -->
<svg version="1.1" id="圖層_1" xmlns="http://www.w3.org/2000/svg" xmlns:xlink="http://www.w3.org/1999/xlink" x="0px" y="0px"
	 viewBox="0 0 2801.6 1052.4" style="enable-background:new 0 0 2801.6 1052.4;" xml:space="preserve">
<style type="text/css">
	.st0{fill:#FFFFFF;stroke:#000000;stroke-miterlimit:10;}
	.st1{stroke:#000000;stroke-miterlimit:10;}
	.st2{fill:none;stroke:#FFFFFF;stroke-width:20;stroke-miterlimit:10;}
</style>
<title>資產 29</title>
<g>
	<g id="ground">
		<path class="st0" d="M2800.4,558.7L1366.6,0.6c-0.2-0.1-0.5-0.1-0.7,0L363.3,363.3l-361,127c-1.4,0.5-2.2,2.1-1.7,3.5
			c0.3,0.8,0.9,1.4,1.6,1.6l1429.6,556.4c0.2,0.1,0.5,0.1,0.7,0l1369,0.1l-1.2-491.3c0.5-0.1,0.9-0.6,0.8-1.2
			C2801.1,559,2800.8,558.7,2800.4,558.7z"/>
	</g>
</g>
<polygon class="st1" points="2.3,490.3 0,1051.9 1432.6,1051.9 "/>
<line class="st2" x1="-158.7" y1="635.4" x2="1221.4" y2="1190.2"/>
<line class="st2" x1="-193.2" y1="669.6" x2="1187" y2="1224.3"/>
</svg>
