<svg xmlns="http://www.w3.org/2000/svg" viewBox="0 0 173.09 195.96"><defs><style>.cls-1,.cls-2{fill:#fff;stroke:#000;}.cls-1{stroke-miterlimit:10;}.cls-2{stroke-linecap:round;stroke-linejoin:round;}</style></defs><title>資產 28</title><g id="圖層_2" data-name="圖層 2"><g id="_5floor" data-name="5floor"><path class="cls-1" d="M78.22,96.52V187.8a.07.07,0,0,0,0,.06l19.46,7.59a.06.06,0,0,0,.09-.06v-91.3a.05.05,0,0,0,0-.06L78.31,96.46A.06.06,0,0,0,78.22,96.52Z"/><path class="cls-1" d="M98,195.41l18.4-8a.13.13,0,0,0,.08-.12V97.52a.13.13,0,0,0-.17-.12L97.89,104a.14.14,0,0,0-.09.13v91.15A.14.14,0,0,0,98,195.41Z"/><path class="cls-1" d="M116.45,97.32,96.91,89.71h0L78.31,96.39a0,0,0,0,0,0,.07L97.8,104h0l18.64-6.69S116.46,97.32,116.45,97.32Z"/><path class="cls-1" d="M.5,40v85.31a.24.24,0,0,0,.14.22l65.23,27.59a.22.22,0,0,0,.3-.22l0-85.39a.26.26,0,0,0-.14-.23L.8,39.75A.22.22,0,0,0,.5,40Z"/><path class="cls-1" d="M66.79,152.94l105.53-46.77a.49.49,0,0,0,.27-.44l-.05-80.67a.45.45,0,0,0-.59-.45L66.43,67.2a.47.47,0,0,0-.29.45l0,84.84A.45.45,0,0,0,66.79,152.94Z"/><path class="cls-1" d="M172.43,24.33,107.32.5h0L.82,39.5a.14.14,0,0,0,0,.25L66.12,67.31h0L172.42,24.43A.05.05,0,0,0,172.43,24.33Z"/><path class="cls-2" d="M126.81,12.67v8.59l-.15,20.67-15.15,7,8.28,7.62-18.88,31.3-.22.12-6,.1-.15-.4,8.63-26.21-9.58-1.4-10-1.46-2.86-.41a1.84,1.84,0,0,1-1.54-1.51l-.31-1.81-2.51-15a.25.25,0,0,0-.17-.25l-.43-.19,1,0H77l49.63-26.94h0A.13.13,0,0,1,126.81,12.67Z"/><line class="cls-2" x1="93.57" y1="60.05" x2="89.57" y2="74.53"/><path class="cls-2" d="M126.62,12.55,77,39.49h-.2Z"/><path class="cls-2" d="M79.06,57.78l-9.34-6.06-3.5-15.8a.25.25,0,0,1,.28-.25h0l9.17,3.79h0l.43.19a.25.25,0,0,1,.17.25l2.51,15,.46,2.75A.16.16,0,0,1,79.06,57.78Z"/><path class="cls-2" d="M66.56,35.68l9.18,3.78h0l-9.17-3.79S66.55,35.67,66.56,35.68Z"/><path class="cls-2" d="M103.15,61.45,94.52,87.66l0,.08a.26.26,0,0,1-.37.23l-7-3.82a.25.25,0,0,1-.16-.24l2.59-9.38,4-14.48Z"/><path class="cls-2" d="M126.63,12.55h0L77,39.49h-.21l-1,0h0l-9.17-3.79h0l-.22-.09L114.4,9.06h1.18l11,3.36A.08.08,0,0,1,126.63,12.55Z"/></g></g></svg>