<?xml version="1.0" encoding="utf-8"?>
<!-- Generator: Adobe Illustrator 23.0.0, SVG Export Plug-In . SVG Version: 6.00 Build 0)  -->
<svg version="1.1" id="圖層_1" xmlns="http://www.w3.org/2000/svg" xmlns:xlink="http://www.w3.org/1999/xlink" x="0px" y="0px"
	 viewBox="0 0 568.5 521.1" style="enable-background:new 0 0 568.5 521.1;" xml:space="preserve">
<style type="text/css">
	.st0{fill:#FFFFFF;stroke:#000000;stroke-miterlimit:10;}
</style>
<title>資產 7</title>
<g>
	<g id="_1floor">
		<path class="st0" d="M0.5,20.8v340.5c0,0.2,0.1,0.3,0.3,0.4l417.4,158.9c0.2,0.1,0.5,0,0.5-0.2c0-0.1,0-0.1,0-0.2l2.7-343.3
			c0-0.2-0.1-0.3-0.3-0.4L1.1,20.4c-0.2-0.1-0.5,0-0.5,0.2C0.5,20.7,0.5,20.7,0.5,20.8z"/>
		<path class="st0" d="M14.4,38v317.3c0,0.2,0.1,0.3,0.2,0.4l390,147.7c0.2,0.1,0.4,0,0.5-0.2c0,0,0-0.1,0-0.1l2.5-320.2
			c0-0.2-0.1-0.3-0.2-0.4L14.9,37.7c-0.2-0.1-0.4,0-0.5,0.2C14.4,37.9,14.4,38,14.4,38z"/>
		<path class="st0" d="M419.9,520.3l48.8-20c0.3-0.1,0.5-0.5,0.5-0.8l1.5-341.7c0-0.5-0.3-0.9-0.8-0.9c-0.1,0-0.2,0-0.3,0
			l-47.6,19.4c-0.3,0.1-0.6,0.5-0.5,0.8l-2.7,342.3c0,0.5,0.3,0.9,0.8,0.9C419.6,520.4,419.8,520.4,419.9,520.3z"/>
		<path class="st0" d="M470.5,156.5L51.7,0.5c0,0,0,0-0.1,0L1.1,19.9C1,20,0.9,20.1,1,20.3c0,0.1,0.1,0.1,0.1,0.1l420.3,156.2h0.1
			l49.1-19.9C470.5,156.7,470.6,156.6,470.5,156.5C470.5,156.6,470.5,156.5,470.5,156.5z"/>
	</g>
	<g id="水管">
		<path class="st0" d="M445.7,232.1c16.1,13.1,38.1,18.8,58.6,18.8c20.5,0,44.4-4.8,60.6-18c4.4-3.6,3.7-11.1,0-14.9
			c-4.3-4.4-10.4-3.6-14.8,0c-5.7,4.6-13.7,6.7-20.7,8.5c-8.2,2.2-16.6,3.3-25.1,3.3c-14.5,0-32.2-3.1-43.7-12.6
			c-4.4-3.6-10.6-4.3-14.9,0C442,220.9,441.3,228.4,445.7,232.1L445.7,232.1z"/>
		<path class="st0" d="M445.7,268.6c16.1,13.1,38.1,18.8,58.6,18.7c20.5,0,44.4-4.8,60.6-18c4.4-3.6,3.7-11.1,0-14.9
			c-4.3-4.4-10.4-3.6-14.8,0c-5.7,4.6-13.7,6.7-20.7,8.5c-8.2,2.2-16.6,3.3-25.1,3.3c-14.5,0-32.2-3.1-43.7-12.6
			c-4.4-3.6-10.6-4.3-14.9,0C442,257.4,441.3,265,445.7,268.6L445.7,268.6z"/>
	</g>
</g>
</svg>
