<?xml version="1.0" encoding="utf-8"?>
<!-- Generator: Adobe Illustrator 23.0.0, SVG Export Plug-In . SVG Version: 6.00 Build 0)  -->
<svg version="1.1" id="圖層_1" xmlns="http://www.w3.org/2000/svg" xmlns:xlink="http://www.w3.org/1999/xlink" x="0px" y="0px"
	 viewBox="0 0 116.7 233.7" style="enable-background:new 0 0 116.7 233.7;" xml:space="preserve">
<style type="text/css">
	.st0{fill:#FFFFFF;stroke:#000000;stroke-miterlimit:10;}
	.st1{fill:none;stroke:#000000;stroke-miterlimit:10;}
</style>
<title>資產 26</title>
<g>
	<g id="_5floor">
		<path class="st0" d="M116.2,206.8c0.1,6.6-3.6,12.7-9.4,15.8l0,0l-4.4,1.6l-18.8,7c3.4-1.8,6.1-4.6,7.8-8c1.2-2.5,1.8-5.2,1.8-7.9
			l-1-167.2c-0.1-7.4-4.6-13.9-11.5-16.6L25.4,10.5l-0.8-0.3C21,8.8,17,8.6,13.3,9.8l21.4-7.9L35,1.7c4.1-1.6,8.7-1.7,12.8,0
			l56,21.4c6.8,2.6,11.3,9.2,11.4,16.5L116.2,206.8z"/>
		<path class="st0" d="M93.1,215.3c0,2.7-0.6,5.5-1.8,7.9l-55.2-21.2c-6.8-2.6-11.4-9.2-11.4-16.5l-1-167.1c0-2.7,0.6-5.5,1.8-7.9
			l55.2,21.1c6.9,2.6,11.4,9.2,11.5,16.5L93.1,215.3z"/>
		<path class="st0" d="M93.1,215.3c0,2.7-0.6,5.5-1.8,7.9c-1.7,3.4-4.4,6.2-7.8,8c-4.5,2.4-9.8,2.7-14.6,0.8l-56-21.4
			c-6.8-2.6-11.4-9.2-11.4-16.5L0.5,27c-0.1-7.1,4.1-13.6,10.6-16.4l0,0c0.7-0.3,1.4-0.6,2.2-0.8c3.7-1.1,7.7-1,11.4,0.5l0.8,0.3
			l55.2,21.1c6.9,2.6,11.4,9.2,11.5,16.5L93.1,215.3z"/>
		<path class="st0" d="M82.5,185.5c0,2.2-0.5,4.3-1.4,6.2c-1.4,2.7-3.6,4.9-6.3,6.3c-3.7,1.9-8,2.1-11.8,0.6l-45.5-16.9
			c-5.5-2-9.2-7.2-9.3-13L7.3,37.5c0-5.6,3.4-10.7,8.6-12.9l0,0c0.6-0.3,1.2-0.5,1.8-0.6c3-0.9,6.3-0.8,9.2,0.4l0.6,0.2l44.8,16.6
			c2.8,1,5.2,2.9,6.9,5.4c1.5,2.2,2.4,4.9,2.4,7.6L82.5,185.5z"/>
		<polyline class="st0" points="11.1,10.6 11.1,10.6 13.3,9.8 		"/>
		<line class="st1" x1="112.1" y1="29.9" x2="89.3" y2="38.8"/>
		<ellipse transform="matrix(0.9171 -0.3987 0.3987 0.9171 -79.1384 32.2557)" class="st0" cx="38" cy="206.4" rx="7.2" ry="10.4"/>
	</g>
</g>
</svg>
