<?xml version="1.0" encoding="utf-8"?>
<!-- Generator: Adobe Illustrator 23.0.0, SVG Export Plug-In . SVG Version: 6.00 Build 0)  -->
<svg version="1.1" id="圖層_1" xmlns="http://www.w3.org/2000/svg" xmlns:xlink="http://www.w3.org/1999/xlink" x="0px" y="0px"
	 viewBox="0 0 500 486.5" style="enable-background:new 0 0 500 486.5;" xml:space="preserve">
<style type="text/css">
	.st0{display:none;fill:#9E4C4C;}
	.st1{fill:none;stroke:#FFFFFF;stroke-miterlimit:10;}
</style>
<rect x="-75.8" y="790.2" class="st0" width="386.5" height="418.4"/>
<g>
	<path class="st1" d="M237.3,373.4c-1.3,0-2.6-0.1-3.7,0.7C234.9,373.9,236.1,373.7,237.3,373.4z"/>
	<path class="st1" d="M360,236.8c4.8-9.3,7-19.1,7.7-29.4c2.3-34.7-8.9-62.4-40.2-80.2c-16.8-9.6-34.8-15.6-53.8-18.7
		c-10.6-1.7-21.4-2.5-31.9-5.4c-10-2.7-20.3-3.5-30.7-1.6c-20.5,3.7-36,13.4-42.9,34c-2,5.9-3,11.9-3.8,18c-0.4,2.9,0.4,5.3,3.4,6.4
		c2.1,0.8,2.2,1.9,1.1,3.7c-4.2,7.4-6.8,15.5-9.5,23.5c-0.8,2.3-1.6,3.3-4.4,3.2c-7.4-0.3-12.5,4.2-14.1,11.5
		c-0.9,3.9-0.6,7.9-0.7,11.9c-0.1,4.3,0.3,8.7-0.9,12.8c-0.1,1.1-0.3,2.1-0.6,3.2c0,0,0,0.1-0.1,0.1c-0.1,2.5-0.4,5.1-0.6,7.6v6.1
		c0.1,0.2,0.1,0.4,0.2,0.6c0.2,0.5,0.2,1,0.1,1.5c0.1,0.5,0.2,0.9,0.3,1.3c0.1,0.2,0.1,0.5,0.1,0.7c2.3,4.3,4.3,8.6,8,11.9
		c1.5,1.3,0.5,3.2,0.4,4.8c-1.1,17.9-0.5,35.6,5.8,52.7c4,10.8,9.8,20.3,18.1,28.3c1.5,1.4,2.9,2.8,3.8,4.6
		c6.4,13.2,17.3,20.2,31.4,22.8c1,0.2,2.3,0.1,3.3,0.4c2.1,0.1,4.1,0.9,6.3,1.2c0.5,0.1,1,0.1,1.5,0.1h10.2c2-0.1,4.1-0.3,6.2-0.6
		c1.1-0.7,2.4-0.6,3.7-0.7c1.3-0.3,2.5-0.6,3.8-1.1c1.8-0.9,3.5-1.8,5.9-1.2c17.6,4.5,33.9,0.9,49-8.9
		c19.3-12.5,31.1-30.6,38.8-51.7c1-2.8,2.4-4.3,5.3-5c6-1.6,11.3-4.7,14-10.4c4.1-9.1,10.4-16.5,16.4-24.3
		C381,257.1,376.5,242.4,360,236.8z M321.3,130.4c16.9,7.5,29,19.5,35.9,36.8c6.8,17,6.6,34.3,4,52c-0.4,2.7-1.7,2.9-3.7,2.2
		c-9.2-3.3-18.5-6.7-27.7-9.8c-3.4-1.2-1.8-3.5-1.3-5.3c2.5-11,4.2-22.1,4.7-33.5c0.6-14.1-3.6-26.9-10.5-38.9c-0.6-1-1-2-1.6-3.1
		c-0.1-0.2-0.2-0.5-0.4-0.7C320.8,130.2,321,130.3,321.3,130.4z M357.1,230.6c-1.8,4.3-4.8,7.5-8.1,10.6c-1.9,1.7-3.9,3.6-3.9,6.2
		c0.2,5.1-2.5,5.9-5.9,5.3c-8.1,0-8.3-0.3-9.5-7.5c-1.5-9-2-18.1-5.3-26.7c-1-2.5,0.1-3,2.4-2.1c9.5,3.4,19,6.8,28.6,10.1
		C357.9,227.3,358,228.5,357.1,230.6z M307.1,123.1c1,0.4,2,1.3,2.7,2.1c14.8,17.6,20.3,37.7,16.7,60.4c-1,6.4-2.1,12.8-3.4,19.1
		c-0.6,3.1-1.5,4.3-4.9,3c-5.5-2.2-11.3-4-16.9-6.1c-1.4-0.5-3.2-0.4-3-3.1c2-18.6-3.5-35.8-10.9-52.5
		c-5.4-12.3-12.6-23.3-23.4-33.6C280,114.2,293.7,117.7,307.1,123.1z M170.4,148.5c1.1-5,2.2-10,4.2-14.8
		c6.9-17.1,20.9-24,37.9-27.1c12.3-2.3,24.2,0.1,35.9,3.4c11.2,3.1,18.3,11.7,24.6,20.9c11.6,17.1,18.3,36,20.4,56.6
		c0.5,11.5,0.5,11.5-10,7.8c-36.2-12.9-72.3-25.9-108.6-38.5C170.1,155,169.6,152.6,170.4,148.5z M163.6,191.5
		c2.7-7.1,5.1-14.3,8.2-21.3c3.4-7.7,3.6-7.6,12-3.8c-8,7.5-12.8,16.9-17.4,26.4c-0.6,1.2-1.1,3.3-3.1,2.2
		C161.7,194,163.2,192.6,163.6,191.5z M148.3,253.6c-5-5.5-5.9-11.4-5-17.4c1.4-9.7,2.1-19.4,2.3-29.3c0.2-10.3,6.1-13.7,15.8-10.2
		c3,1.1,3.5,2.3,2.3,5.3c-5.3,13.1-9.8,26.4-13.1,40.2C149.9,245.6,149.2,249.2,148.3,253.6z M320.6,328.8
		c-11.1,19.3-26.9,33.3-49.4,38.2c-7.7,1.7-15.6,1.3-23.2-0.8c-2.5-0.7-4.8-1-7.1,0.6c-2.1,1.4-4.6,1.8-7.1,2.1
		c-12.4,1.7-24.5,0.3-36.4-3.9c-7.8-2.7-13.2-8.3-17-15.4c-1.8-3.3-4-6-6.6-8.7c-14.4-14.4-20-32.6-21.7-52.3c-0.3-3.6,0-7.3,0-11
		c0.2-35.1,11.8-67,27.5-97.8c0.5-1,1.3-2,2-2.9c6.5-8.4,7.5-9.5,18.1-5.7c36.9,13.3,74,26.1,111,39c3.7,1.3,5.8,3.5,7.4,6.7
		c3.9,7.9,4.9,16.6,5.8,25.1c1.3,13.6,3.6,16.2,17.1,16.1c2.4,0,3.4,0.3,2.8,2.9C338.7,284.6,332.7,307.8,320.6,328.8z M370.4,260.2
		c-1,3.8-3.2,6.9-5.7,9.8c-5.7,6.7-11.1,13.6-14.6,21.8c-2,4.6-5.7,7.2-11.4,8.5c1.9-6.5,3.7-12.3,5.4-18.1c3-10.4,5-21,6.6-31.7
		c1.4-9.3,8.7-10.1,14.4-5.9C369.7,247.9,371.9,254.6,370.4,260.2z"/>
	<path class="st1" d="M320.9,130.8c-0.1-0.2-0.2-0.5-0.4-0.7c0.2,0.1,0.5,0.2,0.7,0.3C321.1,130.5,321,130.6,320.9,130.8z"/>
	<path class="st1" d="M246.7,322.6c-4.7-0.2-9.2-0.7-13.3-3.5c-12.7-8.8-27.5-10.3-42.1-12.4c-13.6-1.9-24.5-16-22.8-30
		c0.5-4,1.3-7.9,2.1-11.8c1.3-6.1,3.7-7.6,9.9-6c14.1,3.5,28.3,7.1,42.4,10.7c16.9,4.3,33.7,8.6,50.6,12.9c7.3,1.9,8.9,5.5,6.3,12.6
		c-4.2,11.4-12.2,19.2-22.6,24.9C254,321.9,250.5,322.9,246.7,322.6z M266.6,286.8c-1.5-0.4-2.9-0.9-4.3-1.2
		c-24.1-6.2-48.3-12.4-72.5-18.4c-1.8-0.4-4.3-2.7-5.6-0.2c-1.2,2.3,1.2,4.3,2.9,5.8s3.6,3,5.5,4.4c12.3,9.4,26.5,13.6,41.7,14.7
		c2.9,0.2,4.9,0.3,6.6-2.7c1.7-3,4-3,6.3-0.1C251.9,294.9,263,293.7,266.6,286.8z"/>
	<path class="st1" d="M206.7,187.6c4-0.1,7,3.4,5.6,7.4c-3.9,11.3-8.1,22.5-12.4,33.6c-1.2,3.2-4,4.4-7.4,3.2
		c-3.2-1.2-4.5-3.8-3.5-6.8c4.1-11.6,8.4-23.1,12.8-34.5C202.6,188.5,204.5,187.6,206.7,187.6z"/>
	<path class="st1" d="M265.8,256c-4,0-6.9-3.6-5.5-7.6c3.9-11.1,8.1-22.1,12.3-33.1c1.4-3.6,4.4-4.7,7.7-3.4
		c3.4,1.4,4.4,4.3,3.1,7.8c-3.9,10.6-7.8,21.2-11.7,31.8C270.7,254.2,269,256,265.8,256z"/>
	<path class="st1" d="M228.5,264.6c-5.5-0.3-10.8-1.4-15.8-3.9c-3.9-2-6.4-5.2-7.3-9.5c-0.4-1.9,0.3-3.8,2.3-4.5
		c2-0.6,2.8,1,3.4,2.7c3.1,8.2,15.9,12.4,23.9,8c2.2-1.2,5.1-4.8,7-1c1.6,3.2-2.3,4.9-4.9,6.3C234.5,264.2,231.6,264.7,228.5,264.6z
		"/>
	<path class="st1" d="M196.5,318.8c10.9,0.7,21.3,2.7,30.9,7.7c1.4,0.7,4,1.3,2.8,3.7c-1,1.9-3.1,2-5.3,1
		c-8.9-4.4-18.4-6.7-28.3-6.9c-2.2-0.1-5.1,0.5-4.9-3.2C191.9,317.5,194.9,319.3,196.5,318.8z"/>
</g>
</svg>
