<svg xmlns="http://www.w3.org/2000/svg" viewBox="0 0 600.95 307.8"><defs><style>.cls-1{fill:#fff;}.cls-1,.cls-2{stroke:#000;stroke-miterlimit:10;}.cls-2{fill:none;}</style></defs><title>資產 12</title><g id="圖層_2" data-name="圖層 2"><g id="_1floor" data-name="1floor"><path class="cls-1" d="M1.5,107.24l-1,82.18a1,1,0,0,0,.65,1L306.31,307.09c.67.26,1.4.53,1.4-1l-.18-82.19a1,1,0,0,0-.65-.95L2.9,106.29A1,1,0,0,0,1.5,107.24Z"/><path class="cls-1" d="M310.57,306.43l288.61-104.1a2.06,2.06,0,0,0,1.27-1.91V120.24a.16.16,0,0,0-.21-.14L308.9,222.75c-.82.29-1.37,3.07-1.37,3.94l.18,77.84C307.71,306,307.38,307.65,310.57,306.43Z"/><path class="cls-1" d="M599.68,119.73,293.41.53,3,105.21a.59.59,0,0,0,0,1.11L307.53,223.24,599.67,120.31A.31.31,0,0,0,599.68,119.73Z"/><path class="cls-1" d="M535,119.44,292.94,25.22l-229,82.54a.47.47,0,0,0,0,.87L304.07,201.4Z"/><polyline class="cls-1" points="292.84 25.5 292.84 76.98 134.62 136.56"/><line class="cls-2" x1="292.84" y1="76.98" x2="466.66" y2="144.09"/></g></g></svg>