<?xml version="1.0" encoding="utf-8"?>
<!-- Generator: Adobe Illustrator 23.0.0, SVG Export Plug-In . SVG Version: 6.00 Build 0)  -->
<svg version="1.1" id="圖層_1" xmlns="http://www.w3.org/2000/svg" xmlns:xlink="http://www.w3.org/1999/xlink" x="0px" y="0px"
	 viewBox="0 0 525.9 3322.1" style="enable-background:new 0 0 525.9 3322.1;" xml:space="preserve">
<style type="text/css">
	.st0{fill:#FFFFFF;stroke:#000000;stroke-miterlimit:10;}
</style>
<title>資產 11</title>
<g>
	<g id="main_">
		<path class="st0" d="M269.3,3289.7v1.4c0,0.5-0.4,0.9-0.9,0.9c-0.1,0-0.2,0-0.3-0.1L1,3187.8c-0.3-0.1-0.6-0.5-0.6-0.8V92.8
			c0-0.5,0.4-0.9,0.9-0.9c0.1,0,0.3,0,0.4,0.1h0.1l266.8,100.9c0.3,0.1,0.6,0.5,0.6,0.8v0.7L269.3,3289.7z"/>
		<path class="st0" d="M525.4,103.6v3076.1c0,0.7-0.4,1.4-1.1,1.7l-252.5,110c-0.9,0.4-2,0-2.4-1c-0.1-0.2-0.1-0.5-0.1-0.7
			l-0.1-3095.3c0-0.8,0.5-1.4,1.2-1.7L523,101.9c0.9-0.3,2,0.2,2.3,1.1C525.3,103.2,525.4,103.4,525.4,103.6z"/>
		<path class="st0" d="M524.9,101.2l-1.9,0.7l-252.7,90.7l-1.1,0.4h-0.1l-0.5-0.2L1.8,92c-0.3-0.1-0.5-0.3-0.4-0.6
			c0-0.2,0.2-0.4,0.4-0.4L256.7-3.5h0.1l268.1,104.3C525,100.8,525,101,524.9,101.2C525,101.2,524.9,101.2,524.9,101.2z"/>
	</g>
</g>
</svg>
